<svg xmlns="http://www.w3.org/2000/svg" version="1.1" xmlns:xlink="http://www.w3.org/1999/xlink" width="192" height="176.2"><svg id="SvgjsSvg1047" data-name="Layer 2" xmlns="http://www.w3.org/2000/svg" viewBox="0 0 192 176.2">
  <defs>
    <style>
      .cls-1 {
        fill: #f2f1f1;
      }

      .cls-2 {
        fill: #e4186c;
      }

      .cls-3 {
        fill: #2b3079;
      }
    </style>
  </defs>
  <g id="SvgjsG1046" data-name="Layer 1">
    <g>
      <path class="cls-3" d="M184.45,8.99l-8.07-8.07c-.58-.58-1.39-.92-2.21-.92H3.13C1.4,0,0,1.4,0,3.13v119.25c0,.84.34,1.63.92,2.23l14.75,14.65c.58.58,1.37.9,2.19.9h.35l-12.83,21.79c-.73,1.23-.52,2.79.5,3.79l5.16,5.15c3.55,3.52,8.18,5.31,12.86,5.31,4,0,8.04-1.32,11.39-4.02l39.91-32.02h113.65c1.73,0,3.13-1.39,3.13-3.11V27.21c0-6.89-2.68-13.36-7.55-18.22ZM174.17,121.9c0,.27-.21.48-.48.48H59.55c-.11,0-.23.05-.31.11l-49.11,39.39c-.42.32-.98-.16-.71-.63l14.25-24.21,8.21-13.94c.18-.31-.05-.73-.42-.73H3.61c-.27,0-.48-.21-.48-.48V3.13h170.55c.27,0,.48.21.48.48v118.29Z"></path>
      <path class="cls-2" d="M174.17,3.61v118.29c0,.27-.21.48-.48.48H59.55c-.11,0-.23.05-.31.11l-49.11,39.39c-.42.32-.98-.16-.71-.63l14.25-24.21,8.21-13.94c.18-.31-.05-.73-.42-.73H3.61c-.27,0-.48-.21-.48-.48V3.61c0-.27.21-.48.48-.48h170.07c.27,0,.48.21.48.48Z"></path>
      <polygon class="cls-1" points="133.04 18.98 112.88 18.98 91.39 55.11 96.6 18.98 76.43 18.98 48.5 65.97 48.5 18.98 28.33 18.98 28.33 99.88 48.5 99.88 69.98 63.74 64.77 99.88 84.94 99.88 106.43 63.74 104.75 75.36 104.75 75.36 103.4 84.74 101.22 99.88 101.22 99.88 121.38 99.88 145.43 99.88 148.97 75.36 124.92 75.36 133.04 18.98"></polygon>
    </g>
  </g>
</svg><style>@media (prefers-color-scheme: light) { :root { filter: none; } }
@media (prefers-color-scheme: dark) { :root { filter: none; } }
</style></svg>